<?xml version="1.0" encoding="utf-8" standalone="no"?>
<!DOCTYPE svg PUBLIC "-//W3C//DTD SVG 1.1//EN"
  "http://www.w3.org/Graphics/SVG/1.1/DTD/svg11.dtd">
<svg xmlns:xlink="http://www.w3.org/1999/xlink" width="315.732706pt" height="247.248pt" viewBox="0 0 315.732706 247.248" xmlns="http://www.w3.org/2000/svg" version="1.1">
 <metadata>
  <rdf:RDF xmlns:dc="http://purl.org/dc/elements/1.1/" xmlns:cc="http://creativecommons.org/ns#" xmlns:rdf="http://www.w3.org/1999/02/22-rdf-syntax-ns#">
   <cc:Work>
    <dc:type rdf:resource="http://purl.org/dc/dcmitype/StillImage"/>
    <dc:date>2026-08-27T09:33:25.571555</dc:date>
    <dc:format>image/svg+xml</dc:format>
    <dc:creator>
     <cc:Agent>
      <dc:title>Matplotlib v3.10.9, https://matplotlib.org/</dc:title>
     </cc:Agent>
    </dc:creator>
   </cc:Work>
  </rdf:RDF>
 </metadata>
 <defs>
  <style type="text/css">*{stroke-linejoin: round; stroke-linecap: butt}</style>
 </defs>
 <g id="figure_1">
  <g id="patch_1">
   <path d="M 0 247.248 
L 315.732706 247.248 
L 315.732706 0 
L 0 0 
z
" style="fill: #faf9f5"/>
  </g>
  <g id="axes_1">
   <g id="patch_2">
    <path d="M 7.2 240.048 
L 308.532706 240.048 
L 308.532706 7.2 
L 7.2 7.2 
z
" style="fill: #faf9f5"/>
   </g>
   <g id="matplotlib.axis_1"/>
   <g id="matplotlib.axis_2"/>
   <g id="line2d_1">
    <path d="M 75.684706 171.563294 
L 240.048 61.987765 
" clip-path="url(#p4e186e9ee6)" style="fill: none; stroke: #b5396b; stroke-width: 3.4; stroke-linecap: square"/>
   </g>
   <g id="line2d_2">
    <path d="M 75.684706 171.563294 
L 240.048 171.563294 
" clip-path="url(#p4e186e9ee6)" style="fill: none; stroke-dasharray: 1.2,1.98; stroke-dashoffset: 0; stroke: #a89b8c; stroke-width: 1.2"/>
   </g>
   <g id="line2d_3">
    <path d="M 240.048 171.563294 
L 240.048 61.987765 
" clip-path="url(#p4e186e9ee6)" style="fill: none; stroke-dasharray: 1.2,1.98; stroke-dashoffset: 0; stroke: #a89b8c; stroke-width: 1.2"/>
   </g>
   <g id="patch_3">
    <path d="M 7.2 240.048 
L 7.2 7.2 
" style="fill: none; stroke: #a89b8c; stroke-width: 1.6; stroke-linejoin: miter; stroke-linecap: square"/>
   </g>
   <g id="patch_4">
    <path d="M 7.2 240.048 
L 308.532706 240.048 
" style="fill: none; stroke: #a89b8c; stroke-width: 1.6; stroke-linejoin: miter; stroke-linecap: square"/>
   </g>
   <g id="PathCollection_1">
    <defs>
     <path id="m6745dbf69c" d="M 0 4.743416 
C 1.257969 4.743416 2.464584 4.24362 3.354102 3.354102 
C 4.24362 2.464584 4.743416 1.257969 4.743416 0 
C 4.743416 -1.257969 4.24362 -2.464584 3.354102 -3.354102 
C 2.464584 -4.24362 1.257969 -4.743416 0 -4.743416 
C -1.257969 -4.743416 -2.464584 -4.24362 -3.354102 -3.354102 
C -4.24362 -2.464584 -4.743416 -1.257969 -4.743416 0 
C -4.743416 1.257969 -4.24362 2.464584 -3.354102 3.354102 
C -2.464584 4.24362 -1.257969 4.743416 0 4.743416 
z
" style="stroke: #1e293b"/>
    </defs>
    <g clip-path="url(#p4e186e9ee6)">
     <use xlink:href="#m6745dbf69c" x="75.684706" y="171.563294" style="fill: #1e293b; stroke: #1e293b"/>
     <use xlink:href="#m6745dbf69c" x="240.048" y="61.987765" style="fill: #1e293b; stroke: #1e293b"/>
    </g>
   </g>
   <g id="text_1">
    <!-- $\mathbf{x}$ -->
    <g style="fill: #1e293b" transform="translate(57.684706 179.563294) scale(0.21 -0.21)">
     <defs>
      <path id="DejaVuSans-Bold-78" d="M 1422 1791 
L 159 3500 
L 1344 3500 
L 2059 2463 
L 2784 3500 
L 3969 3500 
L 2706 1797 
L 4031 0 
L 2847 0 
L 2059 1106 
L 1281 0 
L 97 0 
L 1422 1791 
z
" transform="scale(0.015625)"/>
     </defs>
     <use xlink:href="#DejaVuSans-Bold-78" transform="translate(0 0.3125)"/>
    </g>
   </g>
   <g id="text_2">
    <!-- $\mathbf{y}$ -->
    <g style="fill: #1e293b" transform="translate(248.048 59.987765) scale(0.21 -0.21)">
     <defs>
      <path id="DejaVuSans-Bold-79" d="M 78 3500 
L 1197 3500 
L 2138 1125 
L 2938 3500 
L 4056 3500 
L 2584 -331 
Q 2363 -916 2067 -1148 
Q 1772 -1381 1288 -1381 
L 641 -1381 
L 641 -647 
L 991 -647 
Q 1275 -647 1404 -556 
Q 1534 -466 1606 -231 
L 1638 -134 
L 78 3500 
z
" transform="scale(0.015625)"/>
     </defs>
     <use xlink:href="#DejaVuSans-Bold-79" transform="translate(0 0.3125)"/>
    </g>
   </g>
   <g id="text_3">
    <!-- $\|\mathbf{x}-\mathbf{y}\|$ -->
    <g style="fill: #b5396b" transform="translate(105.866353 106.775529) scale(0.1 -0.1)">
     <defs>
      <path id="DejaVuSans-2016" d="M 1344 4891 
L 1344 -1509 
L 813 -1509 
L 813 4891 
L 1344 4891 
z
M 2376 4891 
L 2376 -1509 
L 1845 -1509 
L 1845 4891 
L 2376 4891 
z
" transform="scale(0.015625)"/>
      <path id="DejaVuSans-2212" d="M 678 2272 
L 4684 2272 
L 4684 1741 
L 678 1741 
L 678 2272 
z
" transform="scale(0.015625)"/>
     </defs>
     <use xlink:href="#DejaVuSans-2016" transform="translate(0 0.578125)"/>
     <use xlink:href="#DejaVuSans-Bold-78" transform="translate(50 0.578125)"/>
     <use xlink:href="#DejaVuSans-2212" transform="translate(133.984375 0.578125)"/>
     <use xlink:href="#DejaVuSans-Bold-79" transform="translate(237.255859 0.578125)"/>
     <use xlink:href="#DejaVuSans-2016" transform="translate(302.441406 0.578125)"/>
    </g>
   </g>
  </g>
 </g>
 <defs>
  <clipPath id="p4e186e9ee6">
   <rect x="7.2" y="7.2" width="301.332706" height="232.848"/>
  </clipPath>
 </defs>
</svg>
